<?xml version="1.0" encoding="utf-8"?>
<!-- Generator: Adobe Illustrator 24.0.2, SVG Export Plug-In . SVG Version: 6.00 Build 0)  -->
<svg version="1.1" xmlns="http://www.w3.org/2000/svg" xmlns:xlink="http://www.w3.org/1999/xlink" x="0px" y="0px"
	 viewBox="0 0 612 792" style="enable-background:new 0 0 612 792;" xml:space="preserve">
<style type="text/css">
	.st0{display:none;}
	.st1{fill:#FFFF12;stroke:#000000;stroke-miterlimit:10;}
	.st2{fill:#FFA015;stroke:#000000;stroke-miterlimit:10;}
	.st3{fill:#4F464F;stroke:#000000;stroke-miterlimit:10;}
</style>

<g id="Layer_2">
	<path class="st1" d="M164.32,250.63c4.04-9.85,11.62-24.7,25.82-38.14c38.83-36.75,92.75-30.51,109.24-28.6
		c12.24,1.42,48.65,6.12,76.27,33.37c13.71,13.52,15.81,23.28,16.29,25.82c4.06,21.73-12.44,44.26-25.82,55.62
		c-7.93,6.73-10.87,6.22-18.67,14.3c-4.13,4.28-13.11,14.58-17.88,30.59c-2.99,10.03-5.86,19.65-1.19,26.62
		c5.68,8.48,19.46,8.44,26.22,8.34c48-0.72,121.55-1.82,175.19-19.47c16.83-5.53,24.99-6.47,41.31-8.34
		c9.86-1.13,14.98-1.09,15.1-0.4c0.15,0.88-7.81,2.17-17.88,6.75c-3.38,1.54-7.48,3.67-13.9,7.94
		c-19.65,13.06-44.85,35.35-44.49,35.75c0.29,0.33,14.91-17.74,41.31-27.81c15.16-5.78,32.71-8.35,33.37-6.36
		c0.23,0.7-1.7,1.92-5.56,4.37c-5.71,3.63-8.65,5.32-15.49,7.55c-16.89,5.5-93.53,83.88-86.6,90.97c1.72,1.76,6.03-3.45,19.86-7.15
		c24-6.42,48.02-0.66,48.07,2.38c0.02,1.35-4.7,2.17-9.93,3.58c-11.36,3.04-19.89,7.42-57.2,33.77c0,0-39.33,27.77-38.14,29.4
		c0.2,0.28,6.02-4.54,13.51-3.97c1.73,0.13,3.94,0.58,3.97,1.19c0.05,0.91-4.69,1.25-9.14,3.18c-6.28,2.72-9.49,7.53-11.12,9.53
		c-7.14,8.79-23.4,12.42-35.36,15.1c-87.34,19.53-156.12,9.53-156.12,9.53c-42.08-6.12-67.56-10.16-92.96-30.59
		c-10.76-8.65-34.95-28.12-37.74-58.79c-2.83-31.14,18-56.25,29-69.52c6.8-8.2,14.05-16.94,26.62-23.84
		c11.89-6.52,16.18-4.62,21.45-10.73c11.16-12.94,3.61-35.07,0.4-44.49c-3.66-10.72-7.7-13.96-11.12-15.1
		c-3.39-1.12-6.48-0.28-7.55,0c-26.33,6.82-110.54,0.24-113.22,0c-0.86-0.08-3.14,0.78-4.37-0.4c-2.6-2.5,0.89-11.67,6.36-17.48
		c5.52-5.87,12.43-7.65,15.1-8.34c3.99-1.04,43.93-11.63,69.92-25.42C151.07,259.32,157.18,255.85,164.32,250.63z"/>
</g>
<g id="Layer_3">
	<path class="st2" d="M177.99,312.45c-5.02,4.53-12.91,3.18-17.19,2.55c-19.64-2.88-9.36,2.71-61.58,0.32
		c-23.69-1.09-42.04-2.98-43.25-2.71c-0.01,0-0.05,0.01-0.1-0.01c-0.91-0.39,1.19-11.11,6.36-17.48c4.57-5.64,11.05-7.27,15.1-8.34
		c4.95-1.32,31.23-9.28,47.33-15.29c13.71-5.12,20.56-7.68,26.47-12.28c6.5-5.06,9.26-9.35,13.19-8.58
		c3.19,0.62,4.44,4.02,10.68,20.37c6.21,16.26,7.39,19.19,7.5,24.75C182.6,300.66,182.75,308.15,177.99,312.45z"/>
	<path class="st3" d="M244.75,224.52c-4.65,0.49-8.01,11.04-6.75,19.5c0.63,4.23,2.96,11.65,6.75,12c4.48,0.41,10.72-9.1,9.75-18
		C253.77,231.26,248.79,224.09,244.75,224.52z"/>
</g>
</svg>
