<svg version="1.2" xmlns="http://www.w3.org/2000/svg" viewBox="0 0 1024 1024" width="1024" height="1024">
	<title>Layer 7</title>
	<style>
		.s0 { fill: #b0ceff;stroke: #b0ceff;stroke-linecap: round;stroke-linejoin: bevel;stroke-width: 25 } 
	</style>
	<path id="Layer 9 copy" fill-rule="evenodd" class="s0" d="m86.4 658.7c-3.1-3.1-0.1-42.5 0.1-50.9c0.6-21 1.7-43.4 2.9-64.2c1.6-26.9 1.4-54.9-0.5-82.5c-2.9-43.7 0.5-87.2 0.5-130.2c0-29.2-0.9-54.2 8-81.7c15.2-47.3 35.8-101.5 75.1-133.4c28.3-23 84-17.3 120.3-17c38 0.4 119.3 1 141.7 1.4c52.7 1 107.7 0 166.3-0.4c23-0.1 59.1-3.8 108-0.3c109.9 7.9 149.7 26.5 187.1 77.8c23.1 31.6 25 117.4 27 145.1c3.9 53.8 4.9 86.6 2.7 140.5c-2.5 59.1-1.2 75.7-1.2 123.6c0 85.1-2.4 185.1-45 251.3c-9.1 14.3-54.9 57.3-84.5 64.4c-71.2 17.1-146.1 14.2-223.5 19.5c-23.2 1.6-45.9-0.4-69.4-0.5c-11.3 0-85.6 1.4-96.8 1.1c-53.2-1.1-82.1 3.6-134.2-9.4c-40.7-10.2-18.3-3-58.5-17.8c-19.9-7.3-23.9-15.5-36.7-21.8c-7.4-3.7-13.2-16-19.5-21.3c-7.5-6.4-20.2-29.3-24.8-38.5c-6.8-13.4-20.1-37.8-26-52c-8.3-19.8-10.7-23.1-14.6-45.6c-1.6-9.4-4.4-24.3-4.4-34.2m216.6-345.9c-12.6-2.6-32.2 2-44.9 2c-4.8 0-9.4 0.4-14.1 1.2c-5.6 1-12.1-0.3-35.1 0.7c-14.3 0.6-28.7-7-33.7 15.4c-0.8 3.6-6.2 5.9-6 12.3c0.4 10.1-0.1 51.2 0.7 61.3c2.6 32.4 4 75.7 5.3 108c3 73.7 2 131.4 2 203c0 25.9 3.3 67.3 12.4 84.4c2.6 5 5.4 22.5 12.6 27.3c14 9.3 31.8 5.3 48.4 5.3c36.5 0 67.6 4.8 104-0.3c21.3-3 23.6-20.8 26-39.3c3.4-27.2 5.6-57.1 6.3-84.4c1-39.6-0.4-77.2-3.3-116c-1.7-22.3-2.5-29.1-3.4-43.3c-2.9-50.5-4.6-87.3-7-139.7c-0.6-13.3-0.8-28.8-1.3-41.3c-0.3-7.7-0.2-26.5-0.7-34.3c-0.8-15-33.3-19.4-45.3-20.7c-6.3-0.7-21.5-1.3-22.9-1.6zm-80.2-164.5c-26.9 22.7-48.4 70.5-36.6 103.7c8 22.7 18.6 29.3 22.3 31.7c9.6 6.1 8.1 5 18.3 7.6c15.7 4 57.4 13 94.4-12c13.9-9.4 28.1-35.8 29.6-45c4.7-28 3.7-40.6-2.6-59.3c-8.3-24.3-51-44-79.7-45c-7.7-0.3-29.7 5-45.7 18.3zm220.1 250.8c0-2.5 2.1 19.5 2.2 19.8c1.2 4.6 3.9 37.8 4.6 42.5c1.5 11 9 49 9.7 60.1c2.1 33.6 9.1 72.6 10 107.2c2.4 90.2 1 35.5 12.2 125.1c2.5 20.9 0.4 45.2 6 65.4c0.9 3.2 5.1 18 8.6 19.5c13 5.7 22.4 4.7 28 4c20.6-2.4 34.6-1.4 44.7 1.7c10.3 3.1 29.9 4.3 49.7-2.3c13-4.4 29.9-10.8 33-17.4c2-4.3 1.9-24.6 3-56.2c0.5-14.8-5-74.1-6.7-97.1c-1.9-25.8-3.7-51.5-3.7-78c0-19.6-2-52.3-4.6-59.3c-1.7-4.4 18.6-20.7 32.6-20.7c12.3 0 16.9 10.7 19 14.3c8.1 13.7 9.6 44.9 10.4 60c3.3 63.7 4.6 80.7 9 155c0.5 9.7 0.5 58 1.2 67.5c0.6 8.1 0.7 22.1 7.4 27.5c8.7 7 34 4.2 42.7 4c28.4-0.6 24.3-1.6 30-4c7.7-3.2 22.6-4.1 29.3-5c27-3.6 35.9-10.2 41-15.3c3.4-3.3 2.9-3.7 1.7-29.7c-1.3-29.6 0-43 0-61c0-28 0.1-85.8-1-114.3c-1.7-44.7-8-31-7.3-80.7c0.2-15.5-10.4-75.6-14.7-101.3c-4.2-24.8-8-60.3-29-85.7c-6.8-8.2-29-27.6-40.7-32.3c-21-8.4-43.3-17-81.6-13.3c-8.3 0.7-35.7 4.3-45.4 9.3c-9 4.7-26.6 13.7-35.6 21c-5.8 4.7-7.8 8.4-8.4 10.7q-0.2-0.6-0.6-1.4c-3.6-6.7-9.3-23.6-14.4-30c-5.6-7.1-26.3-9.6-39.3-10c-6.6-0.1-12.9 1-19.3 2.4c-7 1.5-30 0.7-36.7 3c-12.5 4.2-52.7 8.6-52.7 27.3z" />
</svg>