<svg version="1.2" xmlns="http://www.w3.org/2000/svg" viewBox="0 0 1024 1024" width="1024" height="1024">
	<title>ig rough</title>
	<style>
		.s0 { fill: none;stroke: #c8c8c8;stroke-linecap: round;stroke-linejoin: bevel;stroke-width: 100 } 
	</style>
	<path id="Layer 3" class="s0" d="m177.4 125.3c-2.8-8.9 0.5-18.7 3.9-26.9c1.4-3.3 16.5-3.4 19.5-4.1c14.3-3.3 33.5-4.8 49-5.3c8.7-0.3 17.2-1.2 25.7-1.4c10.1-0.3 20.1-1.4 30.3-1.4c89.7 0 179.3 3.8 268.8-0.9c18.8-1 38.8 1.4 57.4-0.5c25.3-2.7 53.7 1.2 79.9 0c16.4-0.8 56 44.3 65.1 57.9c24 36-6-7.5 22.5 37.5c10.5 16.6 30.8 52.2 31.5 72c0.8 23.8 1.8 12.5 2.8 36.3c2.4 56.5 4.3 112.9 7.5 169.4c2.3 41.5-0.9 83.4 2 124.8c6 86 9.3 171.5-0.6 257.2c-1.8 14.9 3.9 67.7-7.2 76.3c-9 6.9-32.9 4.4-41.9 4.5c-33.5 0.1-66.5 0.1-100-1.3c-41.5-1.7-84.3-3.9-125.9-1c-30.6 2.2-60.7 7.8-91.1 11.3c-38.5 4.5-77.3 6.2-116 9.8c-39.4 3.7-70 5.3-109.7 0.4c-6-0.7-30 0.4-33.3-4.4c-0.9-1.3-1.3-36.3-1.3-37.7c-0.3-10.4-2.8-21.1-3.5-31.6c-1.7-23.7-0.7-47.7-2-71.5c-3.1-54-0.3-109-7.9-162.6c-9.9-69.6-21.2-139.4-23-210c-1-40.5 0.1-81.3-1.3-121.8c-1-33.3-6.5-69.1-1.5-102.3c1.9-13.2 2.4-29.5 1.5-42.9c-0.1-3-5.7-21.7-1.2-21.7m647.6 181.8c-14.3 0-28.3 3.1-42.6 4c-28.9 1.9-58.5 2.7-87.4 1.6c-10.6-0.4-45.5-1.1-54.2-10.6c-11.5-12.6-9.3-36.9-11.2-52c-4.1-31.8-2.5-65.2-2.6-97.2c-0.1-15.2-3-30.2-3-45.3m-266.8 334.8c-2.7-0.8-3.2-1.5-6-1.5c-1 0-4 0-3 0q6.3 0 12.6 0q4.3 0 8.5 0c19.2 0 38.4 0.2 57.6-0.1c24.8-0.4 49.4-3.5 74.3-2.8c21.3 0.6 42.4 3.4 63.8 2.8c12.9-0.4 25.5-2.7 38.4-2.9c18.5-0.2 36.7 0.6 54.9-2.6c2.9-0.5 15.3-1.3 16.9 2.6m-319 172.7q-3 0-6 0c-1.1 0 2.3 0 3.4 0q1.8 0 3.5 0c5.8 0 11.6 0.1 17.4-0.4c19.4-1.7 39.3-3.2 58.9-2.5c56.6 2.2 114.5 2.2 170.7-5c18.8-2.4 38.3-0.6 56.7-2.5c3.5-0.3 17.6-1.2 11.9 2.9m-319.7 183.8c6.3-3.1 15.3-1.3 22-1.6c18.6-0.7 37.2-2.4 55.8-3c22.6-0.7 45.3-3 67.8-5.5c12-1.3 24.3 0.3 36.3-0.8c17.5-1.6 34.5-4.1 52.1-4.1q37.3 0 74.6 0c7.9 0 15.6 1.5 23.5 1.5c2.4 0 5.5 0.5 8-0.1c1.1-0.3 4.2-1.4 3.1-1.4q-2.9 0-5.7 0" />
</svg>