<svg version="1.2" xmlns="http://www.w3.org/2000/svg" viewBox="0 0 1024 1024" width="1024" height="1024">
	<title>-1</title>
	<style>
		.s0 { fill: #cab0ff;stroke: #cab0ff;stroke-linecap: round;stroke-linejoin: bevel;stroke-width: 25 } 
	</style>
	<path id="Layer 9" fill-rule="evenodd" class="s0" d="m67 675.5c-17.5-63.2-19-119.3-19-184.2c0-37 6.6-105.6 18.4-139.5c10.8-31.1 29.8-57.8 47.6-85.4c55.2-85.7 127.2-152.7 220.2-172.7c22.9-6.5 46-12.8 69.3-17.5c29.4-5.9 58.6-12.2 88.3-16c36-4.6 71.4-0.1 107.2 0.9c22.8 0.6 75.2 14 95.7 24.3c4.6 2.3 80.8 37.3 100.4 56c2.8 1.6 5.6 3.1 8.1 4.6c18.4 11.3 32.6 21.4 45.7 34.7c34.8 35 57.3 72.9 79.2 118.6c4.9 8.7 8.5 18.2 11.1 28q2.8 7.1 4.6 14.7c23 99.6 26.2 221.8 16.3 304c-2.9 24.1 0.6 9.7-6 33c-4.2 14.6-33.2 79.3-40.7 92.7c-28.3 50.4-49.6 75.6-93 113c-49.7 42.8-96.2 58.5-157.9 67.2q0.1-0.7 0-1.3c-6-78-0.5-94.5-15.5-176.5c-4.8-26.2-22.1-113.3-33.5-137.5c-3.7-7.8-6.3-18.2-11.6-24.9c-0.5-0.5-1.6-1.7-3-3c19.2-4.3 38.4-10.4 57.7-18.1c45-17.8 97.1-61.1 108.4-116c7.5-36.2-6.8-92.9-26.7-122.2c-0.4-8.7-1.8-17.1-2.7-24.8c-3.3-28.7-9-64.7-20.1-94.4c-3.9-10.3-7.8-27.1-20.1-30.6c-7.5-2.1-15.9 2.7-25 9.8c-17 13.3-30.7 26.6-45.7 41.2c-5.6 5.4-10.1 11.6-15.5 17c-0.6 0.7-1.5 2.2-2.4 3.8c-17.5-5.7-35.4-9.4-53.6-10.4c-20.4-1.1-68.6-3-90.7 2.6c-12.1 3-21.8 5.9-30.1 8.7c-2.6-2.7-4.9-4.9-6.4-6.3c-19.6-18.6-47.8-42.2-63.8-56.6c-7.6-6.8-31.7-24.3-39-15.8c-6 7-3.6 3-12.4 27.8c-11.1 31.2-13.6 62-17.4 96.1c-1.2 11.3-2.4 23.8-2.4 35.3q0 6.2 0 12.5c0 0.5-0.2 4.9-0.4 8.3c-7.4 19.8-12.5 37.2-13.8 60.6c-1 17.4-2.2 40.8 6 60.8c22 53.4 44.9 62.1 63 77.8c14.1 12.2 69.8 26.3 121.8 34.3c-10.1 18.9-20.1 47.3-24.1 62c-2.5 9.1-4.5 17.9-6.2 26.7c-8.1 18.6-37 22.4-50.8 8.8c-36.5-36.1-69-113.8-128.5-116.5c-12-0.6-31.5-0.2-47 6.9c-15.8 7.4-23.9 9.1-44.5 27.5c-4.6 4.2-5.8 16.1 2.3 18.3c6.5 1.7 9.7 0.5 34.2 5c26.4 4.8 45.8 9.8 60.3 24.2c8.2 8.3 14.8 25.2 17.7 32.5c4.3 10.8 20.3 71.4 23.5 82.5c14.9 52.5 25.1 63.7 36.3 79c7.6 10.5 39.9 38.5 87 30.7c-3 14-6.7 28.9-8.4 40.1c-0.8 4.9-3.4 14.1-5.2 23.5c-20.6-2.3-41.1-5.7-61.4-10.3c-55.5-12.6-94.4-28.5-137-64c-27.7-23-51.5-45.3-70.7-71.3c-25.9-35.1-47.8-69.4-64.2-106.9c-6.5-13.4-12.8-29.5-13.9-33.3z" />
</svg>