<svg version="1.2" xmlns="http://www.w3.org/2000/svg" viewBox="0 0 1024 1024" width="1024" height="1024">
	<title>icon_yt-svg</title>
	<style>
		.s0 { fill: #ffb0b0;stroke: #ffb0b0;stroke-linecap: round;stroke-linejoin: bevel;stroke-width: 25 } 
	</style>
	<path id="Layer 7" fill-rule="evenodd" class="s0" d="m472.2 934.1c-53.4-2.1-106.9-0.1-160.2-3.1c-17.7-0.9-67.4-5.8-84.2-14.5c-5-0.2-9.9-0.7-14.7-1.6c-12.2-2.3-24.5-13.9-34.8-20c-6.3-3.8-11.3-12.1-16.1-17.4c-25.2-28-33.6-54.2-49.5-87.6c-29.2-61.2-27.5-102.8-28.7-168.7c-1.4-73.7 0.5-148.9 6.9-222.3c2.3-25.5 1.2-52.5 2.9-78.9c-0.5-30.3 1.2-67.2 11.4-89.3c5.2-11.2 6.8-25.3 11.3-37.1c9.6-25.2 34.4-58.9 59.5-70.5c14.2-6.5 53.4-15.2 79.6-16c4.3-0.7 8.7-1 12.7-1c53.7 0.8 108.2-1.5 162.3-1.5c35.2 0 70.7 3.2 105.8 0.9c36.8-2.3 73.5-1 110.1 0.5q3.1 0.2 6.5 0.2q1.1-0.1 2.2-0.1q3.4-0.1 6.8 0c7.8-0.1 15.9-0.1 23.2 1.1c4.4 0.2 8.9 0.4 13.4 0.4c54.6 0 110.5-1.2 160 25.2c16.8 9 37.9 23.2 45.3 41.8c7.7 19.6 9.5 40.9 11.2 62q0.4 4.3 0.5 8.6c4 22.3 4.2 46.3 5.4 68.9c2.5 45.5 1.3 90-0.5 135.4c-0.9 24.6 0.1 49.1-1.5 73.6c0.2 39.1 3.3 78.2 3 117.3c-0.3 28.7-4.2 58.4-7.9 86.9c-3.8 29.6-4.5 64.7-15.8 93.9q-0.2 1.3-0.3 2.5c-2 13-12.9 35.7-21.6 45.7c-40 46-102 55.1-159.9 60.2c-40.5 3.6-81.6 6.8-122 5.5q-4.4-0.2-8.8-0.3c-38.4 3.8-74.8 0.8-113.5-0.7zm-99.9-590c-14.5 3.1-32 1.6-41.6 15.5c-5.7 8.1-10.7 17.4-15.6 27.1c-1.5 7.4-2.8 14.8-3.6 21.9c-1 9.7 1.3 19.3 0.5 29c-1.5 18-0.7 36.4-1.5 54.5c-1.9 39.7-4.9 78.8-4.5 118.6c0.2 21.2 4.9 43.3 4 64.7c1.2 2.3 2.6 4.5 3.9 6.3c22.8 32.5 68.6 24.8 102.1 10.5c8.6-3.7 17.7-6.1 26.3-9.8c77.2-32.4 157-58.7 233.7-92.4c24-10.5 47.9-21.7 71.4-33.3c5.2-2.6 11.1-6.2 17.3-9.4c4.5-12.1 13-25-2.2-40.2c-20.3-20.2-47.5-30.8-72.5-43.6c-68.2-34.9-138-65.9-210.9-89.5c-24-7.7-48-18.6-72.5-24.8c-7-1.8-16.5-1.9-24.1-3.9c-3.6-0.5-8.5-1.6-10.2-1.2z" />
</svg>