<svg version="1.2" xmlns="http://www.w3.org/2000/svg" viewBox="0 0 1024 1024" width="1024" height="1024">
	<title>icon_ig-svg</title>
	<style>
		.s0 { fill: #faffb0;stroke: #faffb0;stroke-linecap: round;stroke-linejoin: bevel;stroke-width: 25 } 
	</style>
	<path id="Layer 2 copy" fill-rule="evenodd" class="s0" d="m898.6 807.4c-8.6 35.9-28.6 75-62.6 93.1c-12.3 6.6-24.8 10-38 13.9c-4.6 1.4-12.5 3-17.3 3.2c-15.1 5-31.6 3.1-47.2 5c-24.4 3-49 3.9-73.4 6.4c-9.5 1-19.2-0.4-28.6 0.6c-5.2 0.6-10.4 0.7-15.6 0.7c-17.1 2.3-34.5 4.6-51.6 4.7c-23.7 0.1-47.2-3.1-70.8-3.9c-35-1.1-69.8 1.1-104.8-0.6c-32.7-1.5-65.1-4.2-97.3-5.9c-13.1 1.8-27.1 2.2-39.2-0.2c-12.7-2.4-24.9-9.2-35.8-15.8c-30.7-18.5-59.9-39.9-76.4-72q-0.8-1.6-1.6-3c-16.4-21.3-26.9-59.1-32.7-78.2c-13.5-44.8-10.2-93.3-10.2-139.7c0-13.5-2.3-27.4-2.4-40.9c-0.3-32.2-0.5-64.5-0.6-96.6c-4.8-63.3-7.6-128.3 4.9-190.5c1.9-9.9 3.3-20.5 5.2-31.1c0.8-10.3 4.1-21 8.4-31.2q1.1-2.9 2.4-5.6c4.1-8.7 8.8-16.9 13-24c14.3-23.9 29.9-53.8 54.1-69.1c24.1-15.1 53.8-13.1 81.4-15.2c56-4.1 111.7-3.9 167.9-3.9c27.8 0 56.7-2.8 84.9-1.8c3.7-1.4 12.2-0.2 14.9 0.2c12.2 1.6 26 1.3 38.4 0.8c38.2-1.6 76.7-0.8 115-2.1c16.8-0.6 33.2 0.3 49.9 2.5c5.8 0.8 12.5 0.1 17.8 2.9q0.2 0.1 0.4 0.3c10.3 0.8 20.8 3.8 31 5.1c55.8 7 102.7 21.2 121.4 78.5c2.7 8.1 6.2 17.7 8 27.4q0.5 1.2 0.8 2.4c3 10.3 4.8 21.5 6.3 32.1c8.1 55.6 13.8 110.7 13.8 167.2q0 18.5-1.1 36.9c1.7 3.5 0.2 15.6 0 18.9c-1.3 20.2-2.4 40.5-2.4 60.7c-0.2 67.9 1.1 136.1-12.9 202.6c-3.2 15-4 31.2-10.9 45.3c-1.7 3.4-1.7 11.6-4.9 13.8q-0.1 0-0.1 0.1q-0.7 3-1.5 6zm-152.3-602.2c-25.6 16.1-27.4 65 4.1 77.2c14.3 5.5 46.2 8.2 57.2-5.2c21.9-26.7 9-80.1-30.6-76.3c-2.5-0.3-5.4-0.6-8-0.5c-8.1-0.1-16.9 1.1-22.7 4.8zm-241.1 89c-37.4-0.4-79.9 7.8-112.9 26c-26.6 14.6-66.2 43.1-82.7 68.9c-9 14.1-20.5 29-26.6 44.6c-17.5 44.7-28.4 99.2-19.9 147.2c19.5 110.5 134.6 191 243.8 191.3c56.5 0.1 129.4-19.7 180.1-58.1c7.4-8.8 16.4-16.8 23.3-25.6c13.1-16.6 31.8-58 36.4-78.7c5.3-23.9 11.2-48 12.3-72.4c-0.1-9-0.5-17.8-1.1-26.5c-6.8-26.2-5.6-54-16.3-79.4c-8.3-19.6-20.4-36.6-35.1-52.1c-3.6-3.7-11-9.3-15.3-15.3q-3.5-2.5-7-5.2c-33-25.7-65.8-42.4-101.5-51.9c-2.8-1.7-5.8-3-8.8-3.9c-18.3-5.5-36.9-7.7-56.1-8c-3.4-0.1-6.6-0.2-9.5-0.3c-1-0.4-2.1-0.6-3.1-0.6zm171.2 171.1c25 48.6 16.6 109.8-11.3 155.3c-5.3 8.8-12.2 21-21 28.9c-10.5 13.6-24.8 25.2-36.6 31.6c-40.4 21.7-89.2 20.5-133.1 13.8c-9.3-1.4-19.3-6.6-29-9.2q-2-0.5-4.1-1q-3.2-0.6-6.3-0.6l0.2-1c-16.6-4.6-33.2-11.5-44.9-21.7c-6.5-5.6-15-9.8-20.5-16.7q0 0-0.1-0.1c-5.3-4-11.4-7.9-15.2-13.2c-19.3-27.2-32.6-66.6-27.9-100.3c2.2-15.2 7.6-28.9 12.7-42.9c3.7-12.8 8.8-25 13.2-34.4c16.2-35 51.6-62.8 88-75.1q2.3-0.8 4.7-1.3c2.7-1.5 8-2.8 9.3-3.3c13-4.7 26.4-7.7 40-10.1c42.6-7.6 84.3 0.5 120.5 25.6c2.8 2 5.7 4.3 8.4 7c1.5 0.9 3.1 1.8 4.4 3c5.3 4.4 9.7 10.7 13.9 16.5c15.2 12.7 26.4 33.1 34.7 49.2z" />
</svg>